<svg width="530" height="114" viewBox="0 0 530 114" fill="none" xmlns="http://www.w3.org/2000/svg">
<path d="M178.432 50.1591H169.932C169.689 48.7652 169.242 47.5303 168.591 46.4545C167.939 45.3636 167.129 44.4394 166.159 43.6818C165.189 42.9242 164.083 42.3561 162.841 41.9773C161.614 41.5833 160.288 41.3864 158.864 41.3864C156.333 41.3864 154.091 42.0227 152.136 43.2955C150.182 44.553 148.652 46.4015 147.545 48.8409C146.439 51.2652 145.886 54.2273 145.886 57.7273C145.886 61.2879 146.439 64.2879 147.545 66.7273C148.667 69.1515 150.197 70.9848 152.136 72.2273C154.091 73.4545 156.326 74.0682 158.841 74.0682C160.235 74.0682 161.538 73.8864 162.75 73.5227C163.977 73.1439 165.076 72.5909 166.045 71.8636C167.03 71.1364 167.856 70.2424 168.523 69.1818C169.205 68.1212 169.674 66.9091 169.932 65.5455L178.432 65.5909C178.114 67.803 177.424 69.8788 176.364 71.8182C175.318 73.7576 173.947 75.4697 172.25 76.9545C170.553 78.4242 168.568 79.5758 166.295 80.4091C164.023 81.2273 161.5 81.6364 158.727 81.6364C154.636 81.6364 150.985 80.6894 147.773 78.7955C144.561 76.9015 142.03 74.1667 140.182 70.5909C138.333 67.0152 137.409 62.7273 137.409 57.7273C137.409 52.7121 138.341 48.4242 140.205 44.8636C142.068 41.2879 144.606 38.553 147.818 36.6591C151.03 34.7651 154.667 33.8182 158.727 33.8182C161.318 33.8182 163.727 34.1818 165.955 34.9091C168.182 35.6364 170.167 36.7045 171.909 38.1136C173.652 39.5076 175.083 41.2197 176.205 43.25C177.341 45.2652 178.083 47.5682 178.432 50.1591ZM201.017 81.6818C197.608 81.6818 194.653 80.9318 192.153 79.4318C189.653 77.9318 187.714 75.8333 186.335 73.1364C184.972 70.4394 184.29 67.2879 184.29 63.6818C184.29 60.0758 184.972 56.9167 186.335 54.2045C187.714 51.4924 189.653 49.3864 192.153 47.8864C194.653 46.3864 197.608 45.6364 201.017 45.6364C204.426 45.6364 207.381 46.3864 209.881 47.8864C212.381 49.3864 214.313 51.4924 215.676 54.2045C217.055 56.9167 217.744 60.0758 217.744 63.6818C217.744 67.2879 217.055 70.4394 215.676 73.1364C214.313 75.8333 212.381 77.9318 209.881 79.4318C207.381 80.9318 204.426 81.6818 201.017 81.6818ZM201.062 75.0909C202.911 75.0909 204.456 74.5833 205.699 73.5682C206.941 72.5379 207.866 71.1591 208.472 69.4318C209.093 67.7045 209.403 65.7803 209.403 63.6591C209.403 61.5227 209.093 59.5909 208.472 57.8636C207.866 56.1212 206.941 54.7348 205.699 53.7045C204.456 52.6742 202.911 52.1591 201.062 52.1591C199.169 52.1591 197.593 52.6742 196.335 53.7045C195.093 54.7348 194.161 56.1212 193.54 57.8636C192.934 59.5909 192.631 61.5227 192.631 63.6591C192.631 65.7803 192.934 67.7045 193.54 69.4318C194.161 71.1591 195.093 72.5379 196.335 73.5682C197.593 74.5833 199.169 75.0909 201.062 75.0909ZM232.955 34.4545V81H224.727V34.4545H232.955ZM249.642 34.4545V81H241.415V34.4545H249.642ZM273.557 81.6818C270.057 81.6818 267.034 80.9545 264.489 79.5C261.958 78.0303 260.011 75.9545 258.648 73.2727C257.284 70.5758 256.602 67.4015 256.602 63.75C256.602 60.1591 257.284 57.0076 258.648 54.2955C260.027 51.5682 261.951 49.447 264.42 47.9318C266.89 46.4015 269.792 45.6364 273.125 45.6364C275.277 45.6364 277.307 45.9848 279.216 46.6818C281.14 47.3636 282.837 48.4242 284.307 49.8636C285.792 51.303 286.958 53.1364 287.807 55.3636C288.655 57.5758 289.08 60.2121 289.08 63.2727V65.7955H260.466V60.25H281.193C281.178 58.6742 280.837 57.2727 280.17 56.0455C279.504 54.803 278.572 53.8258 277.375 53.1136C276.193 52.4015 274.814 52.0455 273.239 52.0455C271.557 52.0455 270.08 52.4545 268.807 53.2727C267.534 54.0758 266.542 55.1364 265.83 56.4545C265.133 57.7576 264.777 59.1894 264.761 60.75V65.5909C264.761 67.6212 265.133 69.3636 265.875 70.8182C266.617 72.2576 267.655 73.3636 268.989 74.1364C270.322 74.8939 271.883 75.2727 273.67 75.2727C274.867 75.2727 275.951 75.1061 276.92 74.7727C277.89 74.4242 278.731 73.9167 279.443 73.25C280.155 72.5833 280.693 71.7576 281.057 70.7727L288.739 71.6364C288.254 73.6667 287.33 75.4394 285.966 76.9545C284.617 78.4545 282.89 79.6212 280.784 80.4545C278.678 81.2727 276.269 81.6818 273.557 81.6818ZM311.222 94.8182C308.267 94.8182 305.729 94.4167 303.608 93.6136C301.487 92.8258 299.782 91.7652 298.494 90.4318C297.206 89.0985 296.312 87.6212 295.812 86L303.222 84.2045C303.555 84.8864 304.04 85.5606 304.676 86.2273C305.313 86.9091 306.169 87.4697 307.244 87.9091C308.335 88.3636 309.706 88.5909 311.358 88.5909C313.691 88.5909 315.623 88.0227 317.153 86.8864C318.684 85.7652 319.449 83.9167 319.449 81.3409V74.7273H319.04C318.616 75.5758 317.994 76.447 317.176 77.3409C316.373 78.2348 315.305 78.9848 313.972 79.5909C312.653 80.197 310.994 80.5 308.994 80.5C306.312 80.5 303.881 79.8712 301.699 78.6136C299.532 77.3409 297.805 75.447 296.517 72.9318C295.244 70.4015 294.608 67.2348 294.608 63.4318C294.608 59.5985 295.244 56.3636 296.517 53.7273C297.805 51.0758 299.54 49.0682 301.722 47.7045C303.903 46.3258 306.335 45.6364 309.017 45.6364C311.063 45.6364 312.744 45.9848 314.062 46.6818C315.396 47.3636 316.456 48.1894 317.244 49.1591C318.032 50.1136 318.631 51.0152 319.04 51.8636H319.494V46.0909H327.608V81.5682C327.608 84.553 326.896 87.0227 325.472 88.9773C324.047 90.9318 322.1 92.3939 319.631 93.3636C317.161 94.3333 314.358 94.8182 311.222 94.8182ZM311.29 74.0455C313.032 74.0455 314.517 73.6212 315.744 72.7727C316.972 71.9242 317.903 70.7045 318.54 69.1136C319.176 67.5227 319.494 65.6136 319.494 63.3864C319.494 61.1894 319.176 59.2652 318.54 57.6136C317.919 55.9621 316.994 54.6818 315.767 53.7727C314.555 52.8485 313.063 52.3864 311.29 52.3864C309.456 52.3864 307.926 52.8636 306.699 53.8182C305.472 54.7727 304.547 56.0833 303.926 57.75C303.305 59.4015 302.994 61.2803 302.994 63.3864C302.994 65.5227 303.305 67.3939 303.926 69C304.563 70.5909 305.494 71.8333 306.722 72.7273C307.964 73.6061 309.487 74.0455 311.29 74.0455ZM351.494 81.6818C347.994 81.6818 344.972 80.9545 342.426 79.5C339.896 78.0303 337.949 75.9545 336.585 73.2727C335.222 70.5758 334.54 67.4015 334.54 63.75C334.54 60.1591 335.222 57.0076 336.585 54.2955C337.964 51.5682 339.888 49.447 342.358 47.9318C344.828 46.4015 347.729 45.6364 351.062 45.6364C353.214 45.6364 355.244 45.9848 357.153 46.6818C359.078 47.3636 360.775 48.4242 362.244 49.8636C363.729 51.303 364.896 53.1364 365.744 55.3636C366.593 57.5758 367.017 60.2121 367.017 63.2727V65.7955H338.403V60.25H359.131C359.116 58.6742 358.775 57.2727 358.108 56.0455C357.441 54.803 356.509 53.8258 355.312 53.1136C354.131 52.4015 352.752 52.0455 351.176 52.0455C349.494 52.0455 348.017 52.4545 346.744 53.2727C345.472 54.0758 344.479 55.1364 343.767 56.4545C343.07 57.7576 342.714 59.1894 342.699 60.75V65.5909C342.699 67.6212 343.07 69.3636 343.812 70.8182C344.555 72.2576 345.593 73.3636 346.926 74.1364C348.259 74.8939 349.82 75.2727 351.608 75.2727C352.805 75.2727 353.888 75.1061 354.858 74.7727C355.828 74.4242 356.669 73.9167 357.381 73.25C358.093 72.5833 358.631 71.7576 358.994 70.7727L366.676 71.6364C366.191 73.6667 365.267 75.4394 363.903 76.9545C362.555 78.4545 360.828 79.6212 358.722 80.4545C356.616 81.2727 354.206 81.6818 351.494 81.6818ZM405.989 81H390.216V34.4545H406.307C410.928 34.4545 414.898 35.3864 418.216 37.25C421.549 39.0985 424.11 41.7576 425.898 45.2273C427.686 48.697 428.58 52.8485 428.58 57.6818C428.58 62.5303 427.678 66.697 425.875 70.1818C424.087 73.6667 421.504 76.3409 418.125 78.2045C414.761 80.0682 410.716 81 405.989 81ZM398.648 73.7045H405.58C408.822 73.7045 411.527 73.1136 413.693 71.9318C415.86 70.7348 417.489 68.9545 418.58 66.5909C419.67 64.2121 420.216 61.2424 420.216 57.6818C420.216 54.1212 419.67 51.1667 418.58 48.8182C417.489 46.4545 415.875 44.6894 413.739 43.5227C411.617 42.3409 408.981 41.75 405.83 41.75H398.648V73.7045ZM440.068 81H431.068L447.455 34.4545H457.864L474.273 81H465.273L452.841 44H452.477L440.068 81ZM440.364 62.75H464.909V69.5227H440.364V62.75ZM519.807 57.7273C519.807 62.7424 518.867 67.0379 516.989 70.6136C515.125 74.1742 512.58 76.9015 509.352 78.7955C506.14 80.6894 502.496 81.6364 498.42 81.6364C494.345 81.6364 490.693 80.6894 487.466 78.7955C484.254 76.8864 481.708 74.1515 479.83 70.5909C477.966 67.0152 477.034 62.7273 477.034 57.7273C477.034 52.7121 477.966 48.4242 479.83 44.8636C481.708 41.2879 484.254 38.553 487.466 36.6591C490.693 34.7651 494.345 33.8182 498.42 33.8182C502.496 33.8182 506.14 34.7651 509.352 36.6591C512.58 38.553 515.125 41.2879 516.989 44.8636C518.867 48.4242 519.807 52.7121 519.807 57.7273ZM511.33 57.7273C511.33 54.197 510.777 51.2197 509.67 48.7955C508.58 46.3561 507.064 44.5152 505.125 43.2727C503.186 42.0152 500.951 41.3864 498.42 41.3864C495.89 41.3864 493.655 42.0152 491.716 43.2727C489.777 44.5152 488.254 46.3561 487.148 48.7955C486.057 51.2197 485.511 54.197 485.511 57.7273C485.511 61.2576 486.057 64.2424 487.148 66.6818C488.254 69.1061 489.777 70.947 491.716 72.2045C493.655 73.447 495.89 74.0682 498.42 74.0682C500.951 74.0682 503.186 73.447 505.125 72.2045C507.064 70.947 508.58 69.1061 509.67 66.6818C510.777 64.2424 511.33 61.2576 511.33 57.7273Z" fill="white"/>
<path d="M111.342 8H10.0879V19.3697H111.342V8Z" fill="white"/>
<path d="M45.9109 85.516C25.8746 68.1182 22.6782 35.8968 22.6782 35.8968H46.34V54.7748H57.7096V24.3125H10C10.9868 46.2582 17.5297 63.0983 17.5297 63.0983C29.6287 96.328 58.3532 107.998 58.3532 107.998V67.8822H45.9109V85.516Z" fill="white"/>
<path d="M111.343 24.25H62.6035V108C111.75 86.8479 111.343 24.25 111.343 24.25ZM74.7025 85.4964V36.2633H98.0854C93.4732 72.3247 74.7025 85.4964 74.7025 85.4964Z" fill="white"/>
<path d="M111.343 24.25H62.6035V108C111.75 86.8479 111.343 24.25 111.343 24.25ZM74.7025 85.4964V36.2633H98.0854C93.4732 72.3247 74.7025 85.4964 74.7025 85.4964Z" fill="white"/>
</svg>
